<svg width="88" height="61" viewBox="0 0 88 61" fill="none" xmlns="http://www.w3.org/2000/svg">
<g clip-path="url(#clip0_5_6109)">
<path d="M66.1193 10.8824C62.6995 9.32313 58.8759 9.67728 55.8844 11.5144C52.9053 13.3762 50.8864 16.6398 50.7658 20.3929C50.7584 20.629 50.7584 20.838 50.8372 21.02C50.9652 21.17 51.1523 21.2635 51.3665 21.3619C54.7863 22.9211 58.61 22.567 61.6014 20.7298C64.5805 18.8681 66.5994 15.6044 66.7201 11.8514C66.7275 11.6153 66.7275 11.4062 66.6487 11.2242C66.5207 11.0742 66.3335 10.9808 66.1193 10.8824Z" fill="#FF5100"/>
<path d="M42.6629 12.6707L33.957 15.9707L37.2606 24.6671L45.9665 21.3671L42.6629 12.6707Z" fill="#FF5100"/>
<path d="M52.2121 5.88025C51.3356 3.57278 48.7524 2.41203 46.4424 3.28763C44.1324 4.16323 42.9704 6.74362 43.8469 9.05108C44.7235 11.3585 47.3067 12.5193 49.6167 11.6437C51.9267 10.7681 53.0887 8.18771 52.2121 5.88025Z" fill="#FF5100"/>
<path d="M14.8341 20.6191C19.6992 20.6954 23.7911 21.9694 27.2972 24.8714C27.6985 25.2059 28.0579 25.5797 28.3829 25.9806C28.9172 26.6397 28.9345 27.2226 28.3583 27.8572C26.9648 29.3992 25.5294 30.9093 24.1014 32.4267C23.6163 32.9432 23.0501 32.9432 22.4912 32.5694C22.1243 32.3185 21.7895 32.0185 21.4472 31.7356C19.4948 30.1026 17.3331 29.0746 14.7036 29.3844C14.1693 29.4435 13.6276 29.5591 13.118 29.7337C12.1996 30.0509 11.5226 30.651 11.3822 31.6766C11.2493 32.6604 11.7491 33.4203 12.5099 33.8605C13.571 34.4779 14.7134 34.9771 15.8558 35.4272C18.0003 36.2683 20.1866 36.9938 22.3237 37.8546C23.3504 38.2727 24.3353 38.8212 25.2881 39.3967C28.9197 41.5978 30.296 44.9819 30.0202 49.0522C29.6608 54.3646 26.7063 57.8987 21.8486 59.7236C15.5456 62.0821 9.61197 61.0984 4.18553 57.1461C3.02588 56.305 1.92287 55.3606 0.871555 54.3941C-0.31271 53.3021 -0.270855 52.6676 0.896175 51.5584C2.14938 50.3656 3.40012 49.1728 4.66071 47.9824C5.56184 47.1315 5.97054 47.1241 6.98985 47.857C8.30953 48.8161 9.62675 49.7753 10.971 50.7C12.7659 51.9519 14.7774 52.1929 16.8727 51.8019C18.2588 51.5436 19.192 50.7 19.5096 49.3006C19.8272 47.916 19.2264 46.824 18.1062 46.1157C17.1558 45.5083 16.0873 45.0828 15.0433 44.6401C12.9309 43.7301 10.7445 42.9652 8.69115 41.9298C7.28776 41.2289 5.95331 40.3042 4.77643 39.2712C-0.706645 34.4779 0.236336 26.2143 6.60576 22.6949C9.29436 21.2192 12.1725 20.6191 14.8365 20.6191H14.8341Z" fill="#FF5100"/>
<path d="M49.5496 26.6152C59.0902 26.5906 66.8852 34.2688 66.9123 43.7006C66.9369 53.248 59.1739 61.0099 49.6161 61.0025C40.1001 61.0025 32.3199 53.3316 32.3125 43.9515C32.2953 34.3377 39.9499 26.6422 49.5496 26.6176V26.6152ZM57.2387 43.6736C57.3126 41.8807 56.6872 40.164 55.6285 38.5875C53.3092 35.1444 48.3333 34.5025 45.0538 37.0356C41.5158 39.7705 40.9963 45.5476 43.6258 49.1088C45.5635 51.7281 48.8676 52.761 51.9649 51.7355C55.0869 50.6927 57.2313 47.4758 57.2412 43.6736H57.2387Z" fill="#FF5100"/>
<path d="M79.9659 35.6116V47.2691C79.9659 49.0694 81.1083 50.2376 82.913 50.2622C84.149 50.2794 85.3923 50.2549 86.6283 50.2967C87.6377 50.3385 87.9726 50.673 87.98 51.6715C88.0046 54.0718 88.0046 56.4747 87.9874 58.875C87.98 59.5588 87.6944 60.1416 86.936 60.1761C83.6147 60.3089 80.2662 60.5351 77.1862 58.9095C72.5624 56.4747 70.0338 52.6405 69.9747 47.3946C69.9008 39.5983 69.9501 31.802 69.9575 23.9983C69.9575 22.4809 70.2652 22.1562 71.777 22.139C73.9067 22.1218 76.0413 22.1218 78.171 22.139C79.6409 22.1562 79.9659 22.5055 79.9659 23.9491V35.6141V35.6116Z" fill="#FF5100"/>
</g>
<defs>
<clipPath id="clip0_5_6109">
<rect width="88" height="61" fill="white"/>
</clipPath>
</defs>
</svg>
